<svg xmlns="http://www.w3.org/2000/svg" width="1180" height="640" viewBox="0 0 1180 640">
<rect width="1180" height="640" fill="#FFFFFF"/>
<rect x="6" y="6" width="1168" height="628" fill="none" stroke="#D8D4CC" stroke-width="1"/>
<text x="590.0" y="27" font-family="'DejaVu Sans', 'Helvetica Neue', Helvetica, Arial, sans-serif" font-size="14.5" font-weight="650" fill="#1A1A1A" text-anchor="middle">Yüksek Hızlı Zeplin — Yan Görünüş (Platform B)</text>
<text x="590.0" y="44" font-family="'DejaVu Sans', 'Helvetica Neue', Helvetica, Arial, sans-serif" font-size="10" fill="#5A5A5A" text-anchor="middle">Modülerlik kanıtı: Limulus eVTOL ile AYNI dört RDP modülü, helyum gövde etrafında</text>
<defs><marker id="okz" markerWidth="9" markerHeight="9" refX="8" refY="4.5" orient="auto"><path d="M0,0 L9,4.5 L0,9 z" fill="#2E4A66"/></marker></defs>
<line x1="73.20" y1="529.92" x2="1114.80" y2="529.92" stroke="#8A8A8A" stroke-width="1.0" stroke-dasharray="9,5" stroke-opacity="1.0" stroke-linecap="round"/>
<path d="M 118.0 400.0 C 184.6 332.6 422.6 321.6 594.0 321.6 C 784.4 321.6 984.3 343.6 1070.0 400.0 C 984.3 456.4 784.4 478.4 594.0 478.4 C 422.6 478.4 184.6 467.4 118.0 400.0 Z" fill="#F7F5F0" stroke="#5A5248" stroke-width="2.2" opacity="1.0" stroke-linejoin="round"/>
<path d="M 156.1 448.6 C 356.0 480.0 832.0 480.0 1022.4 439.2" fill="none" stroke="#2E4A66" stroke-width="3.0" opacity="0.55" stroke-linejoin="round"/>
<text x="594.00" y="393.28" font-family="'DejaVu Sans', 'Helvetica Neue', Helvetica, Arial, sans-serif" font-size="11" font-weight="400" fill="#5A5A5A" text-anchor="middle" opacity="1.0">Helyum gövde</text>
<text x="594.00" y="410.08" font-family="'DejaVu Sans', 'Helvetica Neue', Helvetica, Arial, sans-serif" font-size="9" font-weight="400" fill="#5A5A5A" text-anchor="middle" opacity="1.0">(lift kaynağı)</text>
<path d="M 1047.60 356.88 L 1103.60 255.74 L 1119.28 265.15 L 1074.48 376.48 Z" fill="#7E9B76" stroke="#4A5C45" stroke-width="1.8" opacity="1.0" stroke-linejoin="round"/>
<path d="M 1047.60 443.12 L 1103.60 544.26 L 1119.28 534.85 L 1074.48 423.52 Z" fill="#7E9B76" stroke="#4A5C45" stroke-width="1.8" opacity="1.0" stroke-linejoin="round"/>
<rect x="510.00" y="478.40" width="168.00" height="33.60" rx="4" fill="#DDE4EC" stroke="#5A5248" stroke-width="1.8" opacity="1.0"/>
<ellipse cx="524.56" cy="495.87" rx="6.94" ry="5.82" fill="#F5EFE0" stroke="#5A5248" stroke-width="1.0" opacity="1.0"/>
<ellipse cx="547.52" cy="495.87" rx="6.94" ry="5.82" fill="#F5EFE0" stroke="#5A5248" stroke-width="1.0" opacity="1.0"/>
<ellipse cx="570.48" cy="495.87" rx="6.94" ry="5.82" fill="#F5EFE0" stroke="#5A5248" stroke-width="1.0" opacity="1.0"/>
<ellipse cx="593.44" cy="495.87" rx="6.94" ry="5.82" fill="#F5EFE0" stroke="#5A5248" stroke-width="1.0" opacity="1.0"/>
<ellipse cx="616.40" cy="495.87" rx="6.94" ry="5.82" fill="#F5EFE0" stroke="#5A5248" stroke-width="1.0" opacity="1.0"/>
<ellipse cx="639.36" cy="495.87" rx="6.94" ry="5.82" fill="#F5EFE0" stroke="#5A5248" stroke-width="1.0" opacity="1.0"/>
<ellipse cx="662.32" cy="495.87" rx="6.94" ry="5.82" fill="#F5EFE0" stroke="#5A5248" stroke-width="1.0" opacity="1.0"/>
<text x="594.00" y="522.64" font-family="'DejaVu Sans', 'Helvetica Neue', Helvetica, Arial, sans-serif" font-size="10" font-weight="400" fill="#5A5A5A" text-anchor="middle" opacity="1.0">Yolcu / kargo gondolu</text>
<line x1="336.96" y1="338.85" x2="336.96" y2="381.65" stroke="#5A5248" stroke-width="2.0" stroke-opacity="1.0" stroke-linecap="round"/>
<path d="M 282.36 338.85 L 391.56 338.85 L 391.56 311.97 L 282.36 311.97 Z" fill="#F0F0F0" stroke="#C1502E" stroke-width="1.8" opacity="1.0" stroke-linejoin="round"/>
<ellipse cx="336.96" cy="323.73" rx="47.04" ry="2.35" fill="#8C7A66" stroke="#4A4038" stroke-width="1.4400000000000002" opacity="1.0"/>
<ellipse cx="336.96" cy="327.09" rx="47.04" ry="2.35" fill="#8C7A66" stroke="#4A4038" stroke-width="1.4400000000000002" opacity="0.6"/>
<path d="M 388.20 311.97 L 383.50 295.84 L 393.58 295.84 Z" fill="#7E9B76" stroke="#4A5C45" stroke-width="1.53" opacity="1.0" stroke-linejoin="round"/>
<ellipse cx="336.96" cy="325.41" rx="2.35" ry="2.35" fill="#FFFFFF" stroke="#C1502E" stroke-width="1.26" opacity="1.0"/>
<text x="336.96" y="348.93" font-family="'DejaVu Sans', 'Helvetica Neue', Helvetica, Arial, sans-serif" font-size="9.5" font-weight="600" fill="#C1502E" text-anchor="middle" opacity="1.0">RDP-1 (ön-üst)</text>
<line x1="851.04" y1="338.85" x2="851.04" y2="381.65" stroke="#5A5248" stroke-width="2.0" stroke-opacity="1.0" stroke-linecap="round"/>
<path d="M 796.44 338.85 L 905.64 338.85 L 905.64 311.97 L 796.44 311.97 Z" fill="#F0F0F0" stroke="#C1502E" stroke-width="1.8" opacity="1.0" stroke-linejoin="round"/>
<ellipse cx="851.04" cy="323.73" rx="47.04" ry="2.35" fill="#8C7A66" stroke="#4A4038" stroke-width="1.4400000000000002" opacity="1.0"/>
<ellipse cx="851.04" cy="327.09" rx="47.04" ry="2.35" fill="#8C7A66" stroke="#4A4038" stroke-width="1.4400000000000002" opacity="0.6"/>
<path d="M 902.28 311.97 L 897.58 295.84 L 907.66 295.84 Z" fill="#7E9B76" stroke="#4A5C45" stroke-width="1.53" opacity="1.0" stroke-linejoin="round"/>
<ellipse cx="851.04" cy="325.41" rx="2.35" ry="2.35" fill="#FFFFFF" stroke="#C1502E" stroke-width="1.26" opacity="1.0"/>
<text x="851.04" y="348.93" font-family="'DejaVu Sans', 'Helvetica Neue', Helvetica, Arial, sans-serif" font-size="9.5" font-weight="600" fill="#C1502E" text-anchor="middle" opacity="1.0">RDP-2 (arka-üst)</text>
<line x1="336.96" y1="461.15" x2="336.96" y2="418.35" stroke="#5A5248" stroke-width="2.0" stroke-opacity="1.0" stroke-linecap="round"/>
<path d="M 282.36 488.03 L 391.56 488.03 L 391.56 461.15 L 282.36 461.15 Z" fill="#F0F0F0" stroke="#C1502E" stroke-width="1.8" opacity="1.0" stroke-linejoin="round"/>
<ellipse cx="336.96" cy="472.91" rx="47.04" ry="2.35" fill="#8C7A66" stroke="#4A4038" stroke-width="1.4400000000000002" opacity="1.0"/>
<ellipse cx="336.96" cy="476.27" rx="47.04" ry="2.35" fill="#8C7A66" stroke="#4A4038" stroke-width="1.4400000000000002" opacity="0.6"/>
<path d="M 388.20 461.15 L 383.50 445.02 L 393.58 445.02 Z" fill="#7E9B76" stroke="#4A5C45" stroke-width="1.53" opacity="1.0" stroke-linejoin="round"/>
<ellipse cx="336.96" cy="474.59" rx="2.35" ry="2.35" fill="#FFFFFF" stroke="#C1502E" stroke-width="1.26" opacity="1.0"/>
<text x="336.96" y="498.11" font-family="'DejaVu Sans', 'Helvetica Neue', Helvetica, Arial, sans-serif" font-size="9.5" font-weight="600" fill="#C1502E" text-anchor="middle" opacity="1.0">RDP-3 (ön-alt)</text>
<line x1="851.04" y1="461.15" x2="851.04" y2="418.35" stroke="#5A5248" stroke-width="2.0" stroke-opacity="1.0" stroke-linecap="round"/>
<path d="M 796.44 488.03 L 905.64 488.03 L 905.64 461.15 L 796.44 461.15 Z" fill="#F0F0F0" stroke="#C1502E" stroke-width="1.8" opacity="1.0" stroke-linejoin="round"/>
<ellipse cx="851.04" cy="472.91" rx="47.04" ry="2.35" fill="#8C7A66" stroke="#4A4038" stroke-width="1.4400000000000002" opacity="1.0"/>
<ellipse cx="851.04" cy="476.27" rx="47.04" ry="2.35" fill="#8C7A66" stroke="#4A4038" stroke-width="1.4400000000000002" opacity="0.6"/>
<path d="M 902.28 461.15 L 897.58 445.02 L 907.66 445.02 Z" fill="#7E9B76" stroke="#4A5C45" stroke-width="1.53" opacity="1.0" stroke-linejoin="round"/>
<ellipse cx="851.04" cy="474.59" rx="2.35" ry="2.35" fill="#FFFFFF" stroke="#C1502E" stroke-width="1.26" opacity="1.0"/>
<text x="851.04" y="498.11" font-family="'DejaVu Sans', 'Helvetica Neue', Helvetica, Arial, sans-serif" font-size="9.5" font-weight="600" fill="#C1502E" text-anchor="middle" opacity="1.0">RDP-4 (arka-alt)</text>
<line x1="118.0" y1="552.3199999999999" x2="1070.0" y2="552.3199999999999" stroke="#3A3A3A" stroke-width="0.9"/>
<path d="M 118.0 552.3199999999999 l 5 -2.1 M 118.0 552.3199999999999 l 5 2.1" stroke="#3A3A3A" stroke-width="0.9" fill="none"/>
<path d="M 1070.0 552.3199999999999 l -5 -2.1 M 1070.0 552.3199999999999 l -5 2.1" stroke="#3A3A3A" stroke-width="0.9" fill="none"/>
<line x1="118.0" y1="552.3199999999999" x2="118.0" y2="556.3199999999999" stroke="#3A3A3A" stroke-width="0.6" stroke-dasharray="3,2" stroke-opacity="0.65"/>
<line x1="1070.0" y1="552.3199999999999" x2="1070.0" y2="556.3199999999999" stroke="#3A3A3A" stroke-width="0.6" stroke-dasharray="3,2" stroke-opacity="0.65"/>
<text x="594.00" y="563.32" font-family="'DejaVu Sans', 'Helvetica Neue', Helvetica, Arial, sans-serif" font-size="10" font-weight="400" fill="#3A3A3A" text-anchor="middle" opacity="1.0">L_zeplin = 85 m</text>
<line x1="45.2" y1="478.4" x2="45.2" y2="321.6" stroke="#3A3A3A" stroke-width="0.9"/>
<path d="M 45.2 478.4 l -2.1 5 M 45.2 478.4 l 2.1 5" stroke="#3A3A3A" stroke-width="0.9" fill="none"/>
<path d="M 45.2 321.6 l -2.1 -5 M 45.2 321.6 l 2.1 -5" stroke="#3A3A3A" stroke-width="0.9" fill="none"/>
<text x="52.20" y="403.00" font-family="'DejaVu Sans', 'Helvetica Neue', Helvetica, Arial, sans-serif" font-size="10" font-weight="400" fill="#3A3A3A" text-anchor="start" opacity="1.0">D = 14 m</text>
<rect x="44" y="470" width="278" height="86" rx="4" fill="#FBF7F2" stroke="#C1502E" stroke-width="1.4"/>
<text x="56.00" y="492.00" font-family="'DejaVu Sans', 'Helvetica Neue', Helvetica, Arial, sans-serif" font-size="10.5" font-weight="600" fill="#C1502E" text-anchor="start" opacity="1.0">MODÜLERLİK KANITI</text>
<text x="56.00" y="511.00" font-family="'DejaVu Sans', 'Helvetica Neue', Helvetica, Arial, sans-serif" font-size="9.5" font-weight="400" fill="#5A5A5A" text-anchor="start" opacity="1.0">RDP modülü Limulus'takiyle özdeş:</text>
<text x="56.00" y="527.00" font-family="'DejaVu Sans', 'Helvetica Neue', Helvetica, Arial, sans-serif" font-size="9.5" font-weight="400" fill="#1A1A1A" text-anchor="start" opacity="1.0">⌀2.80 m · 148 kg · 2×134 kW</text>
<text x="56.00" y="543.00" font-family="'DejaVu Sans', 'Helvetica Neue', Helvetica, Arial, sans-serif" font-size="9" font-weight="400" fill="#5A5A5A" text-anchor="start" opacity="1.0">Yalnızca arayüz bracket'i platforma özgü</text>
<text x="590.00" y="594.00" font-family="'DejaVu Sans', 'Helvetica Neue', Helvetica, Arial, sans-serif" font-size="9" font-weight="400" fill="#5A5A5A" text-anchor="middle" opacity="1.0">Not: RDP modülleri okunabilirlik için 3:1 ölçekte gösterilmiştir</text>
<line x1="1002.8" y1="251.04000000000002" x2="1081.1999999999998" y2="251.04000000000002" stroke="#2E4A66" stroke-width="2.2" marker-end="url(#okz)"/>
<text x="1042.00" y="240.06" font-family="'DejaVu Sans', 'Helvetica Neue', Helvetica, Arial, sans-serif" font-size="9.5" font-weight="600" fill="#2E4A66" text-anchor="middle" opacity="1.0">İLERİ</text>
<line x1="990" y1="600" x2="1102.0" y2="600" stroke="#3A3A3A" stroke-width="1.6"/>
<line x1="990" y1="596" x2="990" y2="604" stroke="#3A3A3A" stroke-width="1.6"/>
<line x1="1102.0" y1="596" x2="1102.0" y2="604" stroke="#3A3A3A" stroke-width="1.6"/>
<line x1="990" y1="600" x2="1046.0" y2="600" stroke="#3A3A3A" stroke-width="4"/>
<text x="1046.00" y="614.00" font-family="'DejaVu Sans', 'Helvetica Neue', Helvetica, Arial, sans-serif" font-size="9.5" font-weight="400" fill="#3A3A3A" text-anchor="middle" opacity="1.0">10 m</text>
<text x="1156.00" y="612.00" font-family="'DejaVu Sans', 'Helvetica Neue', Helvetica, Arial, sans-serif" font-size="9" font-weight="400" fill="#5A5A5A" text-anchor="end" opacity="1.0">Platform B · Rev. 2026-08</text>
</svg>